<svg width="203" height="80" viewBox="0 0 203 80" fill="none" xmlns="http://www.w3.org/2000/svg">
<path d="M0 40L40 80L80 40L40 0L0 40ZM40 72.93L7.07 40L40 7.07L72.93 40L40 72.93Z" fill="url(#paint0_linear_6_63)"/>
<path d="M36.8775 24.9773V36.8773H31.2225V24.9773H24.9775V55.0223H31.2225V43.1223H36.8775V55.0223H43.1225V43.1223H48.7775V55.0223H55.0225V24.9773H48.7775V36.8773H43.1225V24.9773H36.8775Z" fill="url(#paint1_linear_6_63)"/>
<path d="M93.0938 53V27.793H96.3281V39.2188H108.932V27.793H112.184V53H108.932V41.5918H96.3281V53H93.0938ZM120.129 49.7129C117.68 47.1465 116.455 44.041 116.455 40.3965C116.455 36.752 117.68 33.6523 120.129 31.0977C122.578 28.543 125.672 27.2656 129.41 27.2656C133.16 27.2656 136.318 28.5488 138.885 31.1152C141.451 33.6816 142.734 36.7754 142.734 40.3965C142.734 44.0176 141.451 47.1172 138.885 49.6953C136.318 52.2617 133.16 53.5449 129.41 53.5449C125.672 53.5449 122.578 52.2676 120.129 49.7129ZM122.414 33.0137C120.598 35.0293 119.689 37.4902 119.689 40.3965C119.689 43.3027 120.598 45.7637 122.414 47.7793C124.242 49.7949 126.574 50.8027 129.41 50.8027C132.246 50.8027 134.637 49.7891 136.582 47.7617C138.527 45.7344 139.5 43.2793 139.5 40.3965C139.5 37.5137 138.527 35.0586 136.582 33.0312C134.637 31.0039 132.246 29.9902 129.41 29.9902C126.574 29.9902 124.242 30.998 122.414 33.0137ZM146.953 53V27.793H150.188L157.922 38.9199L165.674 27.793H168.908V53H165.674V32.8379L159.152 41.9082H156.674L150.188 32.873V53H146.953ZM175.113 53V27.793H178.348V53H175.113ZM184.535 53V27.793H200.602V30.0957H187.77V38.0938H198.439V40.3965H187.77V50.6973H200.602V53H184.535Z" fill="black"/>
<defs>
<linearGradient id="paint0_linear_6_63" x1="0" y1="0" x2="72.5046" y2="33.8095" gradientUnits="userSpaceOnUse">
<stop stop-color="#0165C3"/>
<stop offset="1" stop-color="#01AFF4"/>
</linearGradient>
<linearGradient id="paint1_linear_6_63" x1="12.0814" y1="33.193" x2="39.3114" y2="45.8906" gradientUnits="userSpaceOnUse">
<stop stop-color="#0165C3"/>
<stop offset="1" stop-color="#01AFF4"/>
</linearGradient>
</defs>
</svg>
